<svg width="35" height="33" viewBox="0 0 35 33" fill="none" xmlns="http://www.w3.org/2000/svg">
<path d="M29.75 33C30.2141 33 30.6593 32.8068 30.9874 32.463C31.3156 32.1192 31.5 31.6529 31.5 31.1667V18.3333H34.125C34.3571 18.3333 34.5796 18.2368 34.7437 18.0648C34.9078 17.8929 35 17.6598 35 17.4167V15.4183C34.9981 14.9374 34.8158 14.4765 34.4925 14.135L21.5075 0.531667C21.1815 0.192969 20.7416 0.00202514 20.2825 0H14.7175C14.2584 0.00202514 13.8185 0.192969 13.4925 0.531667L0.5075 14.135C0.184198 14.4765 0.00193309 14.9374 0 15.4183V17.4167C0 17.6598 0.0921874 17.8929 0.256282 18.0648C0.420376 18.2368 0.642936 18.3333 0.875 18.3333H3.5V31.1667C3.5 31.6529 3.68437 32.1192 4.01256 32.463C4.34075 32.8068 4.78587 33 5.25 33H29.75ZM17.5 8.70833C18.2788 8.70833 19.04 8.95026 19.6876 9.40352C20.3351 9.85678 20.8398 10.501 21.1378 11.2548C21.4358 12.0085 21.5138 12.8379 21.3618 13.6381C21.2099 14.4383 20.8349 15.1733 20.2842 15.7501C19.7336 16.327 19.032 16.7199 18.2682 16.8791C17.5044 17.0382 16.7127 16.9565 15.9932 16.6443C15.2737 16.3321 14.6587 15.8034 14.2261 15.1251C13.7934 14.4467 13.5625 13.6492 13.5625 12.8333C13.5602 12.291 13.6604 11.7535 13.8575 11.2519C14.0546 10.7503 14.3445 10.2946 14.7106 9.91111C15.0767 9.52758 15.5117 9.22383 15.9904 9.01739C16.4692 8.81095 16.9823 8.70591 17.5 8.70833ZM24.9375 27.5H10.0625C9.83779 27.5005 9.61673 27.4405 9.42049 27.3258C9.22425 27.2111 9.0594 27.0456 8.94173 26.845C8.82406 26.6445 8.75751 26.4156 8.74845 26.1804C8.73939 25.9452 8.78813 25.7115 8.89 25.5017L10.5 22.1833C10.7895 21.5814 11.2318 21.0747 11.7782 20.719C12.3247 20.3632 12.9541 20.1721 13.5975 20.1667H21.4025C22.0459 20.1721 22.6753 20.3632 23.2218 20.719C23.7682 21.0747 24.2105 21.5814 24.5 22.1833L26.075 25.5017C26.1756 25.7087 26.2245 25.9392 26.2171 26.1714C26.2097 26.4036 26.1462 26.6301 26.0326 26.8297C25.919 27.0292 25.759 27.1954 25.5675 27.3126C25.376 27.4298 25.1592 27.4943 24.9375 27.5Z" fill="#333333"/>
</svg>
